<svg width="72" height="112" viewBox="0 0 72 112" fill="none" xmlns="http://www.w3.org/2000/svg">
<path d="M39 84V105.795C49.7309 104.332 58 95.1325 58 84H39ZM39 78H58V56H39V78ZM14 78H33V56H14V78ZM14 84C14 95.1325 22.2691 104.332 33 105.795V84H14ZM64 84C64 99.464 51.464 112 36 112C20.536 112 8 99.464 8 84V20H14V50H33V20H39V50H58V20H64V84Z" fill="white"/>
<path d="M68 0H4C1.79086 0 0 1.79086 0 4V24C0 26.2091 1.79086 28 4 28H68C70.2091 28 72 26.2091 72 24V4C72 1.79086 70.2091 0 68 0Z" fill="white"/>
</svg>
